<mxfile host="app.diagrams.net" modified="2024-05-22T07:02:17.846Z" agent="Mozilla/5.0 (Windows NT 10.0; Win64; x64) AppleWebKit/537.36 (KHTML, like Gecko) Chrome/125.0.0.0 Safari/537.36" etag="aLfrpOmUUTCabVrpk5Rr" version="24.4.4" type="device">
  <diagram id="C5RBs43oDa-KdzZeNtuy" name="Page-1">
    <mxGraphModel dx="2261" dy="772" grid="1" gridSize="10" guides="1" tooltips="1" connect="1" arrows="1" fold="1" page="1" pageScale="1" pageWidth="827" pageHeight="1169" math="0" shadow="0">
      <root>
        <mxCell id="WIyWlLk6GJQsqaUBKTNV-0" />
        <mxCell id="WIyWlLk6GJQsqaUBKTNV-1" parent="WIyWlLk6GJQsqaUBKTNV-0" />
        <mxCell id="E2uxjjmSSBUEYvUg2CaS-15" style="edgeStyle=orthogonalEdgeStyle;rounded=0;orthogonalLoop=1;jettySize=auto;html=1;entryX=0.5;entryY=0;entryDx=0;entryDy=0;" parent="WIyWlLk6GJQsqaUBKTNV-1" source="E2uxjjmSSBUEYvUg2CaS-1" target="E2uxjjmSSBUEYvUg2CaS-4" edge="1">
          <mxGeometry relative="1" as="geometry" />
        </mxCell>
        <mxCell id="E2uxjjmSSBUEYvUg2CaS-1" value="Start" style="ellipse;whiteSpace=wrap;html=1;" parent="WIyWlLk6GJQsqaUBKTNV-1" vertex="1">
          <mxGeometry x="90" y="290" width="120" height="80" as="geometry" />
        </mxCell>
        <mxCell id="E2uxjjmSSBUEYvUg2CaS-6" style="edgeStyle=orthogonalEdgeStyle;rounded=0;orthogonalLoop=1;jettySize=auto;html=1;entryX=0;entryY=0.5;entryDx=0;entryDy=0;" parent="WIyWlLk6GJQsqaUBKTNV-1" source="E2uxjjmSSBUEYvUg2CaS-4" target="E2uxjjmSSBUEYvUg2CaS-5" edge="1">
          <mxGeometry relative="1" as="geometry" />
        </mxCell>
        <mxCell id="50iwpk4iZ95wE-xFGmTn-1" style="edgeStyle=orthogonalEdgeStyle;rounded=0;orthogonalLoop=1;jettySize=auto;html=1;entryX=1;entryY=0.5;entryDx=0;entryDy=0;" edge="1" parent="WIyWlLk6GJQsqaUBKTNV-1" source="E2uxjjmSSBUEYvUg2CaS-4" target="50iwpk4iZ95wE-xFGmTn-0">
          <mxGeometry relative="1" as="geometry" />
        </mxCell>
        <mxCell id="E2uxjjmSSBUEYvUg2CaS-4" value="loginpage" style="rounded=0;whiteSpace=wrap;html=1;" parent="WIyWlLk6GJQsqaUBKTNV-1" vertex="1">
          <mxGeometry x="90" y="420" width="120" height="60" as="geometry" />
        </mxCell>
        <mxCell id="E2uxjjmSSBUEYvUg2CaS-7" style="edgeStyle=orthogonalEdgeStyle;rounded=0;orthogonalLoop=1;jettySize=auto;html=1;entryX=0.5;entryY=1;entryDx=0;entryDy=0;" parent="WIyWlLk6GJQsqaUBKTNV-1" source="E2uxjjmSSBUEYvUg2CaS-5" target="E2uxjjmSSBUEYvUg2CaS-4" edge="1">
          <mxGeometry relative="1" as="geometry">
            <Array as="points">
              <mxPoint x="330" y="500" />
              <mxPoint x="150" y="500" />
            </Array>
          </mxGeometry>
        </mxCell>
        <mxCell id="E2uxjjmSSBUEYvUg2CaS-5" value="register" style="rounded=0;whiteSpace=wrap;html=1;" parent="WIyWlLk6GJQsqaUBKTNV-1" vertex="1">
          <mxGeometry x="270" y="420" width="120" height="60" as="geometry" />
        </mxCell>
        <mxCell id="50iwpk4iZ95wE-xFGmTn-10" style="edgeStyle=orthogonalEdgeStyle;rounded=0;orthogonalLoop=1;jettySize=auto;html=1;entryX=1;entryY=0.5;entryDx=0;entryDy=0;" edge="1" parent="WIyWlLk6GJQsqaUBKTNV-1" source="E2uxjjmSSBUEYvUg2CaS-12" target="E2uxjjmSSBUEYvUg2CaS-19">
          <mxGeometry relative="1" as="geometry" />
        </mxCell>
        <mxCell id="E2uxjjmSSBUEYvUg2CaS-12" value="AccountPage" style="rounded=0;whiteSpace=wrap;html=1;" parent="WIyWlLk6GJQsqaUBKTNV-1" vertex="1">
          <mxGeometry x="-90" y="290" width="120" height="60" as="geometry" />
        </mxCell>
        <mxCell id="50iwpk4iZ95wE-xFGmTn-12" style="edgeStyle=orthogonalEdgeStyle;rounded=0;orthogonalLoop=1;jettySize=auto;html=1;entryX=0.5;entryY=1;entryDx=0;entryDy=0;" edge="1" parent="WIyWlLk6GJQsqaUBKTNV-1" source="E2uxjjmSSBUEYvUg2CaS-16" target="WlfpKn2AN0P7_57WANwx-0">
          <mxGeometry relative="1" as="geometry" />
        </mxCell>
        <mxCell id="E2uxjjmSSBUEYvUg2CaS-16" value="EventDetail (not yet registered)" style="rounded=0;whiteSpace=wrap;html=1;" parent="WIyWlLk6GJQsqaUBKTNV-1" vertex="1">
          <mxGeometry x="-90" y="550" width="120" height="60" as="geometry" />
        </mxCell>
        <mxCell id="50iwpk4iZ95wE-xFGmTn-11" style="edgeStyle=orthogonalEdgeStyle;rounded=0;orthogonalLoop=1;jettySize=auto;html=1;entryX=1;entryY=0.5;entryDx=0;entryDy=0;" edge="1" parent="WIyWlLk6GJQsqaUBKTNV-1" source="E2uxjjmSSBUEYvUg2CaS-19" target="E2uxjjmSSBUEYvUg2CaS-23">
          <mxGeometry relative="1" as="geometry" />
        </mxCell>
        <mxCell id="E2uxjjmSSBUEYvUg2CaS-19" value="AllRequestList" style="rounded=0;whiteSpace=wrap;html=1;" parent="WIyWlLk6GJQsqaUBKTNV-1" vertex="1">
          <mxGeometry x="-270" y="290" width="120" height="60" as="geometry" />
        </mxCell>
        <mxCell id="E2uxjjmSSBUEYvUg2CaS-23" value="RequestDetail" style="rounded=0;whiteSpace=wrap;html=1;" parent="WIyWlLk6GJQsqaUBKTNV-1" vertex="1">
          <mxGeometry x="-460" y="290" width="120" height="60" as="geometry" />
        </mxCell>
        <mxCell id="50iwpk4iZ95wE-xFGmTn-7" style="edgeStyle=orthogonalEdgeStyle;rounded=0;orthogonalLoop=1;jettySize=auto;html=1;entryX=0.5;entryY=1;entryDx=0;entryDy=0;" edge="1" parent="WIyWlLk6GJQsqaUBKTNV-1" source="WlfpKn2AN0P7_57WANwx-0" target="E2uxjjmSSBUEYvUg2CaS-23">
          <mxGeometry relative="1" as="geometry" />
        </mxCell>
        <mxCell id="WlfpKn2AN0P7_57WANwx-0" value="EventDetail (registered at this event)" style="rounded=0;whiteSpace=wrap;html=1;" parent="WIyWlLk6GJQsqaUBKTNV-1" vertex="1">
          <mxGeometry x="-460" y="420" width="120" height="60" as="geometry" />
        </mxCell>
        <mxCell id="50iwpk4iZ95wE-xFGmTn-2" style="edgeStyle=orthogonalEdgeStyle;rounded=0;orthogonalLoop=1;jettySize=auto;html=1;entryX=0.5;entryY=0;entryDx=0;entryDy=0;" edge="1" parent="WIyWlLk6GJQsqaUBKTNV-1" source="50iwpk4iZ95wE-xFGmTn-0" target="E2uxjjmSSBUEYvUg2CaS-16">
          <mxGeometry relative="1" as="geometry" />
        </mxCell>
        <mxCell id="50iwpk4iZ95wE-xFGmTn-4" style="edgeStyle=orthogonalEdgeStyle;rounded=0;orthogonalLoop=1;jettySize=auto;html=1;entryX=0.5;entryY=1;entryDx=0;entryDy=0;" edge="1" parent="WIyWlLk6GJQsqaUBKTNV-1" source="50iwpk4iZ95wE-xFGmTn-0" target="E2uxjjmSSBUEYvUg2CaS-12">
          <mxGeometry relative="1" as="geometry" />
        </mxCell>
        <mxCell id="50iwpk4iZ95wE-xFGmTn-9" style="edgeStyle=orthogonalEdgeStyle;rounded=0;orthogonalLoop=1;jettySize=auto;html=1;entryX=1;entryY=0.5;entryDx=0;entryDy=0;" edge="1" parent="WIyWlLk6GJQsqaUBKTNV-1" source="50iwpk4iZ95wE-xFGmTn-0" target="WlfpKn2AN0P7_57WANwx-0">
          <mxGeometry relative="1" as="geometry" />
        </mxCell>
        <mxCell id="50iwpk4iZ95wE-xFGmTn-0" value="MainPage (list event)" style="rounded=0;whiteSpace=wrap;html=1;" vertex="1" parent="WIyWlLk6GJQsqaUBKTNV-1">
          <mxGeometry x="-90" y="420" width="120" height="60" as="geometry" />
        </mxCell>
      </root>
    </mxGraphModel>
  </diagram>
</mxfile>
